<svg viewBox="0 0 40 20" xmlns="http://www.w3.org/2000/svg" xml:space="preserve" fill-rule="evenodd" clip-rule="evenodd" stroke-linejoin="round" stroke-miterlimit="2"><path id="day" fill="none" d="M0 0h40v20H0z"/><clipPath id="_clip1"><path d="M0 0h40v20H0z"/></clipPath><g clip-path="url(#_clip1)"><path fill="#e2e1dc" d="M0 0h40v20H0z"/><path d="M36.5 20 32 17l-5-1.505L24.505 14 22 15.495 20 18l-2.5 2h19Z" fill="#cac6bc"/><path d="M9 20h13.5l-2-2.505L17.995 16 15.5 17.495 10.5 19 9 20Z" fill="#d1cdc4"/><path d="M24.963 6.916 24 4.67l2.43-.289a5.244 5.244 0 0 0-1.466 2.535Zm3.636-3.789 1.463-1.957 1.463 1.957a5.23 5.23 0 0 0-1.463-.207 5.23 5.23 0 0 0-1.463.207Zm5.096 1.254 2.43.289-.963 2.246a5.253 5.253 0 0 0-1.466-2.535Zm1.466 5.043.963 2.246-2.43.289a5.244 5.244 0 0 0 1.466-2.535Zm-3.636 3.789-1.463 1.957-1.463-1.957a5.23 5.23 0 0 0 1.463.207 5.23 5.23 0 0 0 1.463-.207Zm-5.096-1.254-2.43-.289.963-2.246a5.253 5.253 0 0 0 1.466 2.535Z" fill="#fdde96"/><circle cx="30.062" cy="8.171" r="4" fill="#fdde96"/><path d="M35.636 8.606c0-.335.611-.606 1.364-.606.753 0 1.364.272 1.364.606.251-.29.984-.321 1.636-.07.652.251.978.69.727.98.435-.167 1.093.05 1.47.484.376.435.329.923-.106 1.091a.909.909 0 0 1 0 1.818c.435.167.482.656.106 1.091-.376.435-1.035.652-1.47.484.251.29-.075.729-.727.98s-1.385.219-1.636-.07c0 .335-.611.606-1.364.606-.753 0-1.364-.272-1.364-.606-.251.29-.984.321-1.636.07-.652-.251-.978-.69-.727-.98-.435.167-1.093-.05-1.47-.484-.376-.435-.329-.923.106-1.091a.909.909 0 0 1 0-1.818c-.435-.167-.482-.656-.106-1.091.376-.435 1.035-.652 1.47-.484-.251-.29.075-.729.727-.98s1.385-.219 1.636.07Z" fill="#f0eee9"/></g></svg>