<svg viewBox="0 0 40 20" xmlns="http://www.w3.org/2000/svg" xml:space="preserve" fill-rule="evenodd" clip-rule="evenodd" stroke-linejoin="round" stroke-miterlimit="2"><path id="Artboard3" fill="none" d="M0 0h40v20H0z"/><clipPath id="_clip1"><path d="M0 0h40v20H0z"/></clipPath><g clip-path="url(#_clip1)"><path fill="#0f1216" d="M0 0h40v20H0z"/><path d="m5.5 20 4.5-3 5-1.505L17.495 14 20 15.495 22 18l2.5 2h-19Z" fill="#313131"/><path d="M33 20H19.5l2-2.505L24.005 16l2.495 1.495 5 1.505 1.5 1Z" fill="#222"/><path d="M14.856 3a7.004 7.004 0 0 1 2.639 5.481 7.017 7.017 0 0 1-7.014 7.014A7.004 7.004 0 0 1 5 12.856a7.504 7.504 0 0 0 9.857-9.857Z" fill="#828282"/><path d="m9.5 6 .405 1.095L11 7.5l-1.095.405L9.5 9l-.405-1.095L8 7.5l1.095-.405L9.5 6ZM5.5 3l.405 1.095L7 4.5l-1.095.405L5.5 6l-.405-1.095L4 4.5l1.095-.405L5.5 3ZM19.984 1l.405 1.095 1.095.405-1.095.405L19.984 4l-.405-1.095-1.095-.405 1.095-.405L19.984 1ZM22.5 4l.405 1.095L24 5.5l-1.095.405L22.5 7l-.405-1.095L21 5.5l1.095-.405L22.5 4ZM3.108 8.664l.405 1.095 1.095.405-1.095.405-.405 1.095-.405-1.095-1.095-.405 1.095-.405.405-1.095ZM19.984 8.296l.405 1.095 1.095.405-1.095.405-.405 1.095-.405-1.095-1.095-.405 1.095-.405.405-1.095ZM13.5 1l.405 1.095L15 2.5l-1.095.405L13.5 4l-.405-1.095L12 2.5l1.095-.405L13.5 1Z" fill="#828282"/></g></svg>