<svg viewBox="0 0 512 512" xmlns="http://www.w3.org/2000/svg" xml:space="preserve" style="fill-rule:evenodd;clip-rule:evenodd;stroke-linejoin:round;stroke-miterlimit:2"><path style="fill:#57534e" d="M0 0h512v512H0z"/><path d="M107.734 52.326v303.348H42.266V52.326h65.468Z" style="fill:#db2777" transform="rotate(-45 32.677 -115.27) scale(1.3778 1.34202)"/><path d="M107.734 52.326v303.348H42.266V52.326h65.468Z" style="fill:#db2777" transform="rotate(45 41.48 562.717) scale(1.3778 1.34202)"/><path d="M107.734 52.326v303.348H42.266V52.326h65.468Z" style="fill:#db2777" transform="rotate(-45 167.945 -441.84) scale(1.3778 1.34202)"/><path d="M107.734 52.326v303.348H42.266V52.326h65.468Z" style="fill:#db2777" transform="rotate(45 176.748 889.287) scale(1.3778 1.34202)"/><path d="M107.734 52.326v303.348H42.266V52.326h65.468Z" style="fill:#db2777" transform="rotate(-45 -102.591 211.3) scale(1.3778 1.34202)"/><path d="M107.734 52.326v303.348H42.266V52.326h65.468Z" style="fill:#db2777" transform="rotate(45 -93.788 236.148) scale(1.3778 1.34202)"/><path d="M107.734 52.326v303.348H42.266V52.326h65.468Z" style="fill:#500724" transform="rotate(-45 -34.957 48.016) scale(1.3778 1.34202)"/><path d="M107.734 52.326v303.348H42.266V52.326h65.468Z" style="fill:#500724" transform="rotate(45 -26.153 399.433) scale(1.3778 1.34202)"/><path d="M107.734 52.326v303.348H42.266V52.326h65.468Z" style="fill:#500724" transform="rotate(-45 -170.225 374.585) scale(1.3778 1.34202)"/><path d="M107.734 52.326v303.348H42.266V52.326h65.468Z" style="fill:#500724" transform="rotate(45 -161.421 72.864) scale(1.3778 1.34202)"/><path d="M107.734 52.326v303.348H42.266V52.326h65.468Z" style="fill:#500724" transform="rotate(-45 100.31 -278.554) scale(1.3778 1.34202)"/><path d="M107.734 52.326v303.348H42.266V52.326h65.468Z" style="fill:#500724" transform="rotate(45 109.114 726.003) scale(1.3778 1.34202)"/></svg>